<?xml version="1.0" encoding="UTF-8" standalone="no"?>
<svg
   height="16"
   viewBox="0 0 16 16"
   width="16"
   version="1.1"
   id="svg260"
   sodipodi:docname="Play7.svg"
   inkscape:version="1.2.1 (9c6d41e410, 2022-07-14)"
   xmlns:inkscape="http://www.inkscape.org/namespaces/inkscape"
   xmlns:sodipodi="http://sodipodi.sourceforge.net/DTD/sodipodi-0.dtd"
   xmlns="http://www.w3.org/2000/svg"
   xmlns:svg="http://www.w3.org/2000/svg">
  <defs
     id="defs264" />
  <sodipodi:namedview
     id="namedview262"
     pagecolor="#ffffff"
     bordercolor="#000000"
     borderopacity="0.25"
     inkscape:showpageshadow="2"
     inkscape:pageopacity="0.0"
     inkscape:pagecheckerboard="0"
     inkscape:deskcolor="#d1d1d1"
     showgrid="false"
     inkscape:zoom="7.375"
     inkscape:cx="10.169492"
     inkscape:cy="-31.050847"
     inkscape:window-width="1858"
     inkscape:window-height="1177"
     inkscape:window-x="-8"
     inkscape:window-y="-8"
     inkscape:window-maximized="1"
     inkscape:current-layer="svg260" />
  <path
     d="M 6.7347514,1.1839239 C 6.3014039,1.1918476 5.9525468,1.5413623 5.9516673,1.9747098 v 6.3389663 c 9.22e-5,0.6327871 0.7052971,1.0102731 1.2318988,0.6593311 L 11.937791,5.8035249 c 0.470368,-0.3136996 0.470368,-1.0048845 0,-1.3185849 L 7.1835661,1.3154574 C 7.0506063,1.227425 6.8941923,1.181626 6.7347594,1.1839239 Z"
     fill="#e0e0e0"
     fill-rule="evenodd"
     id="path258"
     style="stroke-width:0.792371" />
  <path
     d="m 2.1641065,4.7452636 c -0.5469,0.01 -0.98717,0.4511 -0.98828,0.9980001 v 8.0000003 c 1.163e-4,0.7986 0.89011,1.275 1.5547,0.8321 l 6.0000004,-4 c 0.593621,-0.3959 0.593621,-1.2681998 0,-1.6641008 L 2.7305265,4.9112636 c -0.1678,-0.1111 -0.3652,-0.1689 -0.56641,-0.166 z"
     fill="#e0e0e0"
     fill-rule="evenodd"
     id="path535" />
  <path
     d="M 10.36569,5.7282925 C 9.9323429,5.7362162 9.5834858,6.0857309 9.5826063,6.5190784 v 6.3389666 c 9.22e-5,0.632787 0.7052967,1.010273 1.2318987,0.659331 l 4.754225,-3.169482 c 0.470368,-0.3137 0.470368,-1.0048848 0,-1.3185848 L 10.814505,5.859826 C 10.681545,5.7717936 10.525131,5.7259946 10.365698,5.7282925 Z"
     fill="#e0e0e0"
     fill-rule="evenodd"
     id="path539"
     style="stroke-width:0.792371" />
</svg>
